<?xml version="1.0" encoding="UTF-8" standalone="no"?>
<!DOCTYPE svg PUBLIC "-//W3C//DTD SVG 1.1//EN" "http://www.w3.org/Graphics/SVG/1.1/DTD/svg11.dtd">
<svg width="100%" height="100%" viewBox="0 0 2749 882" version="1.1" xmlns="http://www.w3.org/2000/svg" xmlns:xlink="http://www.w3.org/1999/xlink" xml:space="preserve" xmlns:serif="http://www.serif.com/" style="fill-rule:evenodd;clip-rule:evenodd;stroke-linejoin:round;stroke-miterlimit:2;">
    <g transform="matrix(1,0,0,1,-379.838,-489.195)">
        <g transform="matrix(1,0,0,1,4.54747e-13,141.584)">
            <g transform="matrix(1.05933,0,0,1.05933,-237.361,-427.191)">
                <path d="M1298.77,1340.59C1242.3,1452.61 1152.43,1530.16 1046.55,1530.16C876.659,1530.16 758.473,1363.98 758.473,1132.55C758.473,941.747 853.268,760.789 1039.17,760.789C1132.73,760.789 1245.99,821.109 1278,947.902L1296.31,944.209C1287.77,884.018 1279.22,827.403 1270.61,760.943C1241.07,754.667 1149.96,731.405 1058.86,731.405C760.935,731.405 582.629,909.741 582.629,1155.94C582.629,1345.51 712.976,1563.24 1031.78,1563.24C1114.26,1563.24 1217.68,1539.96 1247.22,1533.84C1266.92,1498.16 1298.77,1409.53 1314.77,1346.74L1298.77,1340.59Z" style="fill:rgb(237,19,91);fill-rule:nonzero;"/>
                <path d="M2209.53,748.635L1866.26,748.635L1866.26,763.251C1953.68,773.099 1963.53,779.255 1963.53,893.768L1963.53,1104.32L1623.69,1104.32L1623.69,893.768C1623.69,779.255 1633.54,773.099 1716.04,763.251L1716.04,748.635L1374,748.635L1374,763.251C1461.39,773.099 1471.23,779.255 1471.23,893.768L1471.23,1400.88C1471.23,1515.39 1461.39,1521.54 1378.92,1531.39L1378.92,1546.01L1716.04,1546.01L1716.04,1531.39C1633.54,1521.54 1623.69,1515.39 1623.69,1400.88L1623.69,1142.32L1963.53,1142.32L1963.53,1400.88C1963.53,1514.15 1953.68,1521.54 1866.26,1531.39L1866.26,1546.01L2211.99,1546.01L2211.99,1531.39C2125.84,1521.54 2115.99,1515.39 2115.99,1400.88L2115.99,893.768C2115.99,779.255 2120.91,773.099 2209.53,763.251L2209.53,748.635Z" style="fill:rgb(237,19,91);fill-rule:nonzero;"/>
                <path d="M2899.98,1351.63C2877.83,1402.12 2853.23,1441.52 2826.24,1472.3C2796.6,1506.77 2756.12,1516.62 2676.07,1516.62C2629.27,1516.62 2592.32,1514.16 2572.62,1503.08C2549.22,1493.23 2544.29,1455.06 2544.29,1387.34L2544.29,1153.4L2635.43,1153.4C2745.04,1153.4 2761.05,1163.25 2779.52,1246.97L2795.37,1246.97L2795.37,1023.05L2779.52,1023.05C2761.05,1106.78 2745.04,1115.4 2635.43,1115.4L2544.29,1115.4L2544.29,821.115C2544.29,784.176 2551.68,778.02 2589.86,778.02L2640.35,778.02C2720.41,778.02 2753.66,789.101 2779.52,812.496C2807.72,838.353 2829.95,880.218 2839.83,927.008L2855.67,923.314C2850.8,848.204 2844.7,770.673 2843.48,748.635L2297.07,748.635L2297.07,763.251C2379.53,770.636 2391.83,773.099 2391.83,893.766L2391.83,1400.88C2391.83,1515.39 2379.53,1521.52 2274.91,1531.32L2274.91,1546.01L2872.9,1546.01C2882.75,1506.77 2907.36,1402.12 2914.75,1356.56L2899.98,1351.63Z" style="fill:rgb(237,19,91);fill-rule:nonzero;"/>
                <path d="M3088.36,731.405C3017.04,731.405 2996.13,748.635 2996.13,774.481C2996.13,794.173 2998.59,816.327 3005.97,863.095C3026.87,1004.63 3051.47,1147.4 3072.37,1288.93C3076.06,1303.7 3095.74,1303.7 3101.89,1288.93C3124.02,1147.4 3146.16,1004.63 3168.29,863.095C3174.44,816.327 3176.9,794.173 3176.9,774.481C3176.9,748.635 3157.22,731.405 3088.36,731.405Z" style="fill:rgb(237,19,91);fill-rule:nonzero;"/>
                <g transform="matrix(4.31712,0,0,4.31712,3036.42,932.816)">
                    <path d="M3.769,99.69L0.387,102.089C-0.912,105.801 -3.365,112.813 -4.389,115.738L-4.286,118.366C-2.298,122.876 4.299,137.848 6.025,141.765L7.473,142.708C7.485,142.708 7.498,142.708 7.511,142.708L9.323,140.953C9.481,136.113 9.911,122.933 9.911,122.933C9.867,122.894 9.811,122.882 9.769,122.84C8.342,121.412 8.548,118.97 10.387,117.836C11.418,117.199 12.777,117.235 13.784,117.91C15.422,119.011 15.608,121.133 14.48,122.548L14.48,140.488L16.699,142.701C16.71,142.701 16.722,142.701 16.733,142.701L17.756,142.025C19.239,138.56 26.009,122.74 28.031,118.016L28.082,115.323C26.969,112.421 24.345,105.583 22.966,101.989L19.622,99.69L3.769,99.69Z" style="fill:rgb(237,19,91);fill-rule:nonzero;"/>
                </g>
            </g>
        </g>
    </g>
</svg>
