<?xml version="1.0" encoding="UTF-8" standalone="no"?>
<!DOCTYPE svg PUBLIC "-//W3C//DTD SVG 1.1//EN" "http://www.w3.org/Graphics/SVG/1.1/DTD/svg11.dtd">
<svg width="100%" height="100%" viewBox="0 0 551 551" version="1.1" xmlns="http://www.w3.org/2000/svg" xmlns:xlink="http://www.w3.org/1999/xlink" xml:space="preserve" xmlns:serif="http://www.serif.com/" style="fill-rule:evenodd;clip-rule:evenodd;stroke-linejoin:round;stroke-miterlimit:2;">
    <g transform="matrix(1,0,0,1,-972.521,-3415.85)">
        <g transform="matrix(0.345003,0,0,0.345003,1392.02,3846.46)">
            <g transform="matrix(1.06064,1.09975e-32,-1.09975e-32,1.06064,-3694.32,-2023.9)">
                <path d="M3088.36,731.405C3017.04,731.405 2996.13,748.635 2996.13,774.481C2996.13,794.173 2998.59,816.327 3005.97,863.095C3026.87,1004.63 3051.47,1147.4 3072.37,1288.93C3076.06,1303.7 3095.74,1303.7 3101.89,1288.93C3124.02,1147.4 3146.16,1004.63 3168.29,863.095C3174.44,816.327 3176.9,794.173 3176.9,774.481C3176.9,748.635 3157.22,731.405 3088.36,731.405ZM3087.13,1560.78C3131.39,1560.78 3163.36,1528.81 3163.36,1483.32C3163.36,1437.82 3131.39,1405.86 3088.36,1405.86C3046.56,1405.86 3014.59,1437.82 3014.59,1483.32C3014.59,1528.81 3046.56,1560.78 3087.13,1560.78Z" style="fill:rgb(237,19,90);fill-rule:nonzero;"/>
                <g transform="matrix(0.707107,0.707107,-0.707107,0.707107,1953.85,-1749.67)">
                    <path d="M3088.36,731.405C3017.04,731.405 2996.13,748.635 2996.13,774.481C2996.13,794.173 2998.59,816.327 3005.97,863.095C3026.87,1004.63 3051.47,1147.4 3072.37,1288.93C3076.06,1303.7 3095.74,1303.7 3101.89,1288.93C3124.02,1147.4 3146.16,1004.63 3168.29,863.095C3174.44,816.327 3176.9,794.173 3176.9,774.481C3176.9,748.635 3157.22,731.405 3088.36,731.405ZM3087.13,1560.78C3131.39,1560.78 3163.36,1528.81 3163.36,1483.32C3163.36,1437.82 3131.39,1405.86 3088.36,1405.86C3046.56,1405.86 3014.59,1437.82 3014.59,1483.32C3014.59,1528.81 3046.56,1560.78 3087.13,1560.78Z" style="fill:rgb(237,19,90);fill-rule:nonzero;"/>
                </g>
                <g transform="matrix(0,1,-1,0,4572.63,-1605.3)">
                    <path d="M3088.36,731.405C3017.04,731.405 2996.13,748.635 2996.13,774.481C2996.13,794.173 2998.59,816.327 3005.97,863.095C3026.87,1004.63 3051.47,1147.4 3072.37,1288.93C3076.06,1303.7 3095.74,1303.7 3101.89,1288.93C3124.02,1147.4 3146.16,1004.63 3168.29,863.095C3174.44,816.327 3176.9,794.173 3176.9,774.481C3176.9,748.635 3157.22,731.405 3088.36,731.405ZM3087.13,1560.78C3131.39,1560.78 3163.36,1528.81 3163.36,1483.32C3163.36,1437.82 3131.39,1405.86 3088.36,1405.86C3046.56,1405.86 3014.59,1437.82 3014.59,1483.32C3014.59,1528.81 3046.56,1560.78 3087.13,1560.78Z" style="fill:rgb(237,19,90);fill-rule:nonzero;"/>
                </g>
                <g transform="matrix(-0.707107,0.707107,-0.707107,-0.707107,6322.3,348.548)">
                    <path d="M3088.36,731.405C3017.04,731.405 2996.13,748.635 2996.13,774.481C2996.13,794.173 2998.59,816.327 3005.97,863.095C3026.87,1004.63 3051.47,1147.4 3072.37,1288.93C3076.06,1303.7 3095.74,1303.7 3101.89,1288.93C3124.02,1147.4 3146.16,1004.63 3168.29,863.095C3174.44,816.327 3176.9,794.173 3176.9,774.481C3176.9,748.635 3157.22,731.405 3088.36,731.405ZM3087.13,1560.78C3131.39,1560.78 3163.36,1528.81 3163.36,1483.32C3163.36,1437.82 3131.39,1405.86 3088.36,1405.86C3046.56,1405.86 3014.59,1437.82 3014.59,1483.32C3014.59,1528.81 3046.56,1560.78 3087.13,1560.78Z" style="fill:rgb(237,19,90);fill-rule:nonzero;"/>
                </g>
                <g transform="matrix(-1,-1.11022e-16,1.11022e-16,-1,6177.93,2967.33)">
                    <path d="M3088.36,731.405C3017.04,731.405 2996.13,748.635 2996.13,774.481C2996.13,794.173 2998.59,816.327 3005.97,863.095C3026.87,1004.63 3051.47,1147.4 3072.37,1288.93C3076.06,1303.7 3095.74,1303.7 3101.89,1288.93C3124.02,1147.4 3146.16,1004.63 3168.29,863.095C3174.44,816.327 3176.9,794.173 3176.9,774.481C3176.9,748.635 3157.22,731.405 3088.36,731.405ZM3087.13,1560.78C3131.39,1560.78 3163.36,1528.81 3163.36,1483.32C3163.36,1437.82 3131.39,1405.86 3088.36,1405.86C3046.56,1405.86 3014.59,1437.82 3014.59,1483.32C3014.59,1528.81 3046.56,1560.78 3087.13,1560.78Z" style="fill:rgb(237,19,90);fill-rule:nonzero;"/>
                </g>
                <g transform="matrix(-0.707107,-0.707107,0.707107,-0.707107,4224.08,4717)">
                    <path d="M3088.36,731.405C3017.04,731.405 2996.13,748.635 2996.13,774.481C2996.13,794.173 2998.59,816.327 3005.97,863.095C3026.87,1004.63 3051.47,1147.4 3072.37,1288.93C3076.06,1303.7 3095.74,1303.7 3101.89,1288.93C3124.02,1147.4 3146.16,1004.63 3168.29,863.095C3174.44,816.327 3176.9,794.173 3176.9,774.481C3176.9,748.635 3157.22,731.405 3088.36,731.405ZM3087.13,1560.78C3131.39,1560.78 3163.36,1528.81 3163.36,1483.32C3163.36,1437.82 3131.39,1405.86 3088.36,1405.86C3046.56,1405.86 3014.59,1437.82 3014.59,1483.32C3014.59,1528.81 3046.56,1560.78 3087.13,1560.78Z" style="fill:rgb(237,19,90);fill-rule:nonzero;"/>
                </g>
                <g transform="matrix(-1.11022e-16,-1,1,-1.11022e-16,1605.3,4572.63)">
                    <path d="M3088.36,731.405C3017.04,731.405 2996.13,748.635 2996.13,774.481C2996.13,794.173 2998.59,816.327 3005.97,863.095C3026.87,1004.63 3051.47,1147.4 3072.37,1288.93C3076.06,1303.7 3095.74,1303.7 3101.89,1288.93C3124.02,1147.4 3146.16,1004.63 3168.29,863.095C3174.44,816.327 3176.9,794.173 3176.9,774.481C3176.9,748.635 3157.22,731.405 3088.36,731.405ZM3087.13,1560.78C3131.39,1560.78 3163.36,1528.81 3163.36,1483.32C3163.36,1437.82 3131.39,1405.86 3088.36,1405.86C3046.56,1405.86 3014.59,1437.82 3014.59,1483.32C3014.59,1528.81 3046.56,1560.78 3087.13,1560.78Z" style="fill:rgb(237,19,90);fill-rule:nonzero;"/>
                </g>
                <g transform="matrix(0.707107,-0.707107,0.707107,0.707107,-144.373,2618.78)">
                    <path d="M3088.36,731.405C3017.04,731.405 2996.13,748.635 2996.13,774.481C2996.13,794.173 2998.59,816.327 3005.97,863.095C3026.87,1004.63 3051.47,1147.4 3072.37,1288.93C3076.06,1303.7 3095.74,1303.7 3101.89,1288.93C3124.02,1147.4 3146.16,1004.63 3168.29,863.095C3174.44,816.327 3176.9,794.173 3176.9,774.481C3176.9,748.635 3157.22,731.405 3088.36,731.405ZM3087.13,1560.78C3131.39,1560.78 3163.36,1528.81 3163.36,1483.32C3163.36,1437.82 3131.39,1405.86 3088.36,1405.86C3046.56,1405.86 3014.59,1437.82 3014.59,1483.32C3014.59,1528.81 3046.56,1560.78 3087.13,1560.78Z" style="fill:rgb(237,19,90);fill-rule:nonzero;"/>
                </g>
            </g>
        </g>
    </g>
</svg>
